# xmcd
#
# Track frame offsets:
#	150
#	17468
#	36159
#	52773
#	70976
#	88027
#	106659
#	122541
#	138721
#	157301
#	174562
#	193257
#	209029
#	223892
#
# Disc length: 3214 seconds
#
# Revision: 1
# Processed by: cddbd v1.5.2PL0 Copyright (c) Steve Scherf et al.
# Submitted via: audiograbber 1.83.01
#
DISCID=d00c8c0e
DTITLE=The Sunny Cowgirls - What We Do
DYEAR=2013
DGENRE=Country
TTITLE0=Green And Gold
TTITLE1=Good Way
TTITLE2=One More Run
TTITLE3=Kids Forever
TTITLE4=All Nighter
TTITLE5=Like Her
TTITLE6=Gonna Drive
TTITLE7=Go You Good Thing
TTITLE8=Winter Blues
TTITLE9=Bring Your 'a' Game
TTITLE10=What We Do
TTITLE11=Blue Desert
TTITLE12=Celebrate
TTITLE13=Thank You
EXTD=
EXTT0=
EXTT1=
EXTT2=
EXTT3=
EXTT4=
EXTT5=
EXTT6=
EXTT7=
EXTT8=
EXTT9=
EXTT10=
EXTT11=
EXTT12=
EXTT13=
PLAYORDER=
